<svg width="78" height="14" viewBox="0 0 78 14" fill="none" xmlns="http://www.w3.org/2000/svg">
<g filter="url(#filter0_d_24_4556)">
<path d="M7.9209 0.290039C8.54557 0.290039 9.11149 0.382812 9.61865 0.568359C10.1258 0.753906 10.5557 1.00749 10.9082 1.3291C11.2669 1.65072 11.5422 2.02799 11.7339 2.46094C11.9256 2.8877 12.0215 3.34229 12.0215 3.82471V9.46533C12.0215 9.94775 11.9256 10.4054 11.7339 10.8384C11.5422 11.2651 11.2669 11.6393 10.9082 11.9609C10.5557 12.2826 10.1258 12.5361 9.61865 12.7217C9.11149 12.9072 8.54557 13 7.9209 13H5.06348C4.4388 13 3.87288 12.9072 3.36572 12.7217C2.85856 12.5361 2.42562 12.2826 2.06689 11.9609C1.71436 11.6393 1.44222 11.2651 1.25049 10.8384C1.05876 10.4054 0.962891 9.94775 0.962891 9.46533V3.82471C0.962891 3.34229 1.05876 2.8877 1.25049 2.46094C1.44222 2.02799 1.71436 1.65072 2.06689 1.3291C2.42562 1.00749 2.85856 0.753906 3.36572 0.568359C3.87288 0.382812 4.4388 0.290039 5.06348 0.290039H7.9209ZM8.77441 8.79736H9.83203L9.09912 1.88574L8.52393 1.31055L7.29004 1.125H6.29736L5.06348 1.31055L4.49756 1.88574L3.73682 8.79736H4.84082L4.98926 6.82129L5.08203 5.96777H8.50537L8.59814 6.82129L8.77441 8.79736ZM8.125 2.24756C8.16829 2.74854 8.21777 3.22168 8.27344 3.66699C8.3291 4.1123 8.38167 4.58236 8.43115 5.07715H5.16553L5.44385 2.24756C5.61702 2.229 5.76546 2.20736 5.88916 2.18262C6.01904 2.15788 6.17057 2.13314 6.34375 2.1084H7.25293L8.125 2.24756ZM19.9814 7.81396H17.1333V1.125H16.1499V8.79736H19.9814V7.81396ZM18.9053 0.290039C19.5299 0.290039 20.0959 0.382812 20.603 0.568359C21.1102 0.753906 21.54 1.00749 21.8926 1.3291C22.2513 1.65072 22.5265 2.02799 22.7183 2.46094C22.91 2.8877 23.0059 3.34229 23.0059 3.82471V9.46533C23.0059 9.94775 22.91 10.4054 22.7183 10.8384C22.5265 11.2651 22.2513 11.6393 21.8926 11.9609C21.54 12.2826 21.1102 12.5361 20.603 12.7217C20.0959 12.9072 19.5299 13 18.9053 13H16.0479C15.4232 13 14.8573 12.9072 14.3501 12.7217C13.8429 12.5361 13.41 12.2826 13.0513 11.9609C12.6987 11.6393 12.4266 11.2651 12.2349 10.8384C12.0431 10.4054 11.9473 9.94775 11.9473 9.46533V3.82471C11.9473 3.34229 12.0431 2.8877 12.2349 2.46094C12.4266 2.02799 12.6987 1.65072 13.0513 1.3291C13.41 1.00749 13.8429 0.753906 14.3501 0.568359C14.8573 0.382812 15.4232 0.290039 16.0479 0.290039H18.9053ZM27.8301 2.08984H30.2422L31.1978 2.24756L31.3833 1.25488L30.3071 1.125H27.8115L26.8652 1.27344L26.2715 1.86719L26.1416 2.64648V7.30371L26.2715 8.10156L26.8838 8.68604L27.8115 8.79736H30.1309L31.0679 8.68604L31.6709 8.10156L31.8008 7.30371V4.86377H29.1104V5.85645H30.8174V7.16455C30.7865 7.26351 30.7648 7.35628 30.7524 7.44287C30.7401 7.52946 30.7184 7.62223 30.6875 7.72119L30.0752 7.81396H27.8301L27.2642 7.72119L27.1343 7.12744V2.73926L27.2271 2.229L27.8301 2.08984ZM29.8896 0.290039C30.5143 0.290039 31.0802 0.382812 31.5874 0.568359C32.0946 0.753906 32.5244 1.00749 32.877 1.3291C33.2357 1.65072 33.5109 2.02799 33.7026 2.46094C33.8944 2.8877 33.9902 3.34229 33.9902 3.82471V9.46533C33.9902 9.94775 33.8944 10.4054 33.7026 10.8384C33.5109 11.2651 33.2357 11.6393 32.877 11.9609C32.5244 12.2826 32.0946 12.5361 31.5874 12.7217C31.0802 12.9072 30.5143 13 29.8896 13H27.0322C26.4076 13 25.8416 12.9072 25.3345 12.7217C24.8273 12.5361 24.3944 12.2826 24.0356 11.9609C23.6831 11.6393 23.411 11.2651 23.2192 10.8384C23.0275 10.4054 22.9316 9.94775 22.9316 9.46533V3.82471C22.9316 3.34229 23.0275 2.8877 23.2192 2.46094C23.411 2.02799 23.6831 1.65072 24.0356 1.3291C24.3944 1.00749 24.8273 0.753906 25.3345 0.568359C25.8416 0.382812 26.4076 0.290039 27.0322 0.290039H29.8896ZM42.3491 7.81396H38.6475V5.45752H41.7461V4.4834H38.6475V2.1084H42.2192V1.125H37.6826V8.79736H42.3491V7.81396ZM40.874 0.290039C41.4987 0.290039 42.0646 0.382812 42.5718 0.568359C43.0789 0.753906 43.5088 1.00749 43.8613 1.3291C44.2201 1.65072 44.4953 2.02799 44.687 2.46094C44.8787 2.8877 44.9746 3.34229 44.9746 3.82471V9.46533C44.9746 9.94775 44.8787 10.4054 44.687 10.8384C44.4953 11.2651 44.2201 11.6393 43.8613 11.9609C43.5088 12.2826 43.0789 12.5361 42.5718 12.7217C42.0646 12.9072 41.4987 13 40.874 13H38.0166C37.3919 13 36.826 12.9072 36.3188 12.7217C35.8117 12.5361 35.3787 12.2826 35.02 11.9609C34.6675 11.6393 34.3953 11.2651 34.2036 10.8384C34.0119 10.4054 33.916 9.94775 33.916 9.46533V3.82471C33.916 3.34229 34.0119 2.8877 34.2036 2.46094C34.3953 2.02799 34.6675 1.65072 35.02 1.3291C35.3787 1.00749 35.8117 0.753906 36.3188 0.568359C36.826 0.382812 37.3919 0.290039 38.0166 0.290039H40.874ZM51.8584 0.290039C52.4831 0.290039 53.049 0.382812 53.5562 0.568359C54.0633 0.753906 54.4932 1.00749 54.8457 1.3291C55.2044 1.65072 55.4797 2.02799 55.6714 2.46094C55.8631 2.8877 55.959 3.34229 55.959 3.82471V9.46533C55.959 9.94775 55.8631 10.4054 55.6714 10.8384C55.4797 11.2651 55.2044 11.6393 54.8457 11.9609C54.4932 12.2826 54.0633 12.5361 53.5562 12.7217C53.049 12.9072 52.4831 13 51.8584 13H49.001C48.3763 13 47.8104 12.9072 47.3032 12.7217C46.7961 12.5361 46.3631 12.2826 46.0044 11.9609C45.6519 11.6393 45.3797 11.2651 45.188 10.8384C44.9963 10.4054 44.9004 9.94775 44.9004 9.46533V3.82471C44.9004 3.34229 44.9963 2.8877 45.188 2.46094C45.3797 2.02799 45.6519 1.65072 46.0044 1.3291C46.3631 1.00749 46.7961 0.753906 47.3032 0.568359C47.8104 0.382812 48.3763 0.290039 49.001 0.290039H51.8584ZM53.3521 5.85645L53.1758 5.16992L52.4336 4.84521L53.1758 4.56689L53.3521 3.86182V2.62793L53.2222 1.84863L52.6377 1.25488L51.6821 1.125H47.7856V8.79736H51.6821L52.6377 8.68604L53.2222 8.10156L53.3521 7.32227V5.85645ZM52.2388 7.72119L51.6265 7.81396H48.7783V5.36475H51.645L52.2759 5.43896L52.3687 5.98633V7.22021L52.2388 7.72119ZM52.2388 4.2793L51.6265 4.39062H48.7783V2.1084H51.6265L52.2759 2.21045L52.2388 2.75781L52.3687 3.7876L52.2388 4.2793ZM62.8428 0.290039C63.4674 0.290039 64.0334 0.382812 64.5405 0.568359C65.0477 0.753906 65.4775 1.00749 65.8301 1.3291C66.1888 1.65072 66.464 2.02799 66.6558 2.46094C66.8475 2.8877 66.9434 3.34229 66.9434 3.82471V9.46533C66.9434 9.94775 66.8475 10.4054 66.6558 10.8384C66.464 11.2651 66.1888 11.6393 65.8301 11.9609C65.4775 12.2826 65.0477 12.5361 64.5405 12.7217C64.0334 12.9072 63.4674 13 62.8428 13H59.9854C59.3607 13 58.7948 12.9072 58.2876 12.7217C57.7804 12.5361 57.3475 12.2826 56.9888 11.9609C56.6362 11.6393 56.3641 11.2651 56.1724 10.8384C55.9806 10.4054 55.8848 9.94775 55.8848 9.46533V3.82471C55.8848 3.34229 55.9806 2.8877 56.1724 2.46094C56.3641 2.02799 56.6362 1.65072 56.9888 1.3291C57.3475 1.00749 57.7804 0.753906 58.2876 0.568359C58.7948 0.382812 59.3607 0.290039 59.9854 0.290039H62.8428ZM63.3159 6.50586V8.79736H64.2993V6.40381L63.9746 5.55029L62.917 5.16992L63.9375 4.67822L64.2251 3.84326V2.81348L64.1138 2.03418L63.5015 1.25488L62.5737 1.125H59.1133V8.79736H60.106V5.70801H62.5181L63.1768 6.00488L63.3159 6.50586ZM62.5181 2.1084L63.1768 2.396L63.2417 2.93408V3.91748L63.1025 4.42773L62.5181 4.71533H60.106V2.1084H62.5181ZM73.8271 0.290039C74.4518 0.290039 75.0177 0.382812 75.5249 0.568359C76.0321 0.753906 76.4619 1.00749 76.8145 1.3291C77.1732 1.65072 77.4484 2.02799 77.6401 2.46094C77.8319 2.8877 77.9277 3.34229 77.9277 3.82471V9.46533C77.9277 9.94775 77.8319 10.4054 77.6401 10.8384C77.4484 11.2651 77.1732 11.6393 76.8145 11.9609C76.4619 12.2826 76.0321 12.5361 75.5249 12.7217C75.0177 12.9072 74.4518 13 73.8271 13H70.9697C70.3451 13 69.7791 12.9072 69.272 12.7217C68.7648 12.5361 68.3319 12.2826 67.9731 11.9609C67.6206 11.6393 67.3485 11.2651 67.1567 10.8384C66.965 10.4054 66.8691 9.94775 66.8691 9.46533V3.82471C66.8691 3.34229 66.965 2.8877 67.1567 2.46094C67.3485 2.02799 67.6206 1.65072 67.9731 1.3291C68.3319 1.00749 68.7648 0.753906 69.272 0.568359C69.7791 0.382812 70.3451 0.290039 70.9697 0.290039H73.8271ZM75.7383 2.62793L75.6084 1.84863L75.0239 1.25488L74.0684 1.125H71.582L70.6357 1.25488L70.042 1.84863L69.9307 2.62793V7.30371L70.042 8.10156L70.6543 8.68604L71.582 8.79736H74.0684L75.0239 8.68604L75.6084 8.10156L75.7383 7.30371V2.62793ZM74.625 7.72119L74.0127 7.81396H71.6377L71.0347 7.72119L70.8955 7.16455V2.7207L70.9883 2.21045L71.6377 2.1084H74.0127L74.6621 2.21045L74.7549 2.75781V7.20166L74.625 7.72119Z" fill="url(#paint0_linear_24_4556)"/>
<path d="M10.9082 1.3291L10.2342 2.0679L10.2407 2.07367L10.9082 1.3291ZM11.7339 2.46094L10.8195 2.86587L10.8217 2.87075L11.7339 2.46094ZM11.7339 10.8384L12.6461 11.2482L12.6482 11.2433L11.7339 10.8384ZM10.9082 11.9609L10.2406 11.2163L10.2342 11.2222L10.9082 11.9609ZM2.06689 11.9609L1.39291 12.6997L1.39935 12.7055L2.06689 11.9609ZM1.25049 10.8384L0.336126 11.2433L0.33832 11.2482L1.25049 10.8384ZM1.25049 2.46094L2.16267 2.87076L2.16484 2.86586L1.25049 2.46094ZM2.06689 1.3291L1.39932 0.584504L1.39293 0.590336L2.06689 1.3291ZM8.77441 8.79736L7.77837 8.88621L7.85965 9.79736H8.77441V8.79736ZM9.83203 8.79736V9.79736H10.9437L10.8265 8.69191L9.83203 8.79736ZM9.09912 1.88574L10.0935 1.78029L10.0563 1.42867L9.80623 1.17864L9.09912 1.88574ZM8.52393 1.31055L9.23103 0.60344L8.99822 0.370626L8.67263 0.321665L8.52393 1.31055ZM7.29004 1.125L7.43874 0.136118L7.36481 0.125H7.29004V1.125ZM6.29736 1.125V0.125H6.2226L6.14866 0.136118L6.29736 1.125ZM5.06348 1.31055L4.91477 0.321665L4.58472 0.371297L4.35064 0.609212L5.06348 1.31055ZM4.49756 1.88574L3.78473 1.18441L3.5415 1.43162L3.50356 1.77634L4.49756 1.88574ZM3.73682 8.79736L2.74282 8.68796L2.62071 9.79736H3.73682V8.79736ZM4.84082 8.79736V9.79736H5.76852L5.83801 8.87227L4.84082 8.79736ZM4.98926 6.82129L3.99511 6.71323L3.99331 6.72978L3.99207 6.74638L4.98926 6.82129ZM5.08203 5.96777V4.96777H4.18484L4.08789 5.85971L5.08203 5.96777ZM8.50537 5.96777L9.49952 5.85971L9.40257 4.96777H8.50537V5.96777ZM8.59814 6.82129L9.59419 6.73244L9.59333 6.72283L9.59229 6.71323L8.59814 6.82129ZM8.125 2.24756L9.12129 2.16146L9.05403 1.38316L8.28258 1.26005L8.125 2.24756ZM8.43115 5.07715V6.07715H9.53614L9.42619 4.97764L8.43115 5.07715ZM5.16553 5.07715L4.17033 4.97926L4.06234 6.07715H5.16553V5.07715ZM5.44385 2.24756L5.33731 1.25325L4.5283 1.33993L4.44865 2.14967L5.44385 2.24756ZM5.88916 2.18262L5.70204 1.20024L5.69304 1.20204L5.88916 2.18262ZM6.34375 2.1084V1.1084H6.27268L6.20233 1.11845L6.34375 2.1084ZM7.25293 2.1084L7.41051 1.12089L7.33222 1.1084H7.25293V2.1084ZM7.9209 1.29004C8.44643 1.29004 8.89376 1.36798 9.27507 1.50748L9.96223 -0.370763C9.32922 -0.602354 8.64472 -0.709961 7.9209 -0.709961V1.29004ZM9.27507 1.50748C9.67613 1.65421 9.98959 1.84468 10.2342 2.06787L11.5822 0.590336C11.1217 0.170297 10.5755 -0.146398 9.96223 -0.370763L9.27507 1.50748ZM10.2407 2.07367C10.4959 2.30251 10.6861 2.56464 10.8195 2.86586L12.6482 2.05601C12.3982 1.49135 12.0379 0.998918 11.5757 0.584532L10.2407 2.07367ZM10.8217 2.87075C10.9537 3.16459 11.0215 3.47904 11.0215 3.82471H13.0215C13.0215 3.20553 12.8975 2.6108 12.6461 2.05112L10.8217 2.87075ZM11.0215 3.82471V9.46533H13.0215V3.82471H11.0215ZM11.0215 9.46533C11.0215 9.81099 10.9537 10.1305 10.8195 10.4335L12.6482 11.2433C12.8975 10.6804 13.0215 10.0845 13.0215 9.46533H11.0215ZM10.8217 10.4286C10.689 10.724 10.4985 10.9852 10.2407 11.2164L11.5757 12.7055C12.0353 12.2935 12.3953 11.8062 12.6461 11.2482L10.8217 10.4286ZM10.2342 11.2222C9.98959 11.4454 9.67613 11.6358 9.27507 11.7826L9.96223 13.6608C10.5755 13.4364 11.1217 13.1197 11.5822 12.6997L10.2342 11.2222ZM9.27507 11.7826C8.89376 11.9221 8.44643 12 7.9209 12V14C8.64472 14 9.32922 13.8924 9.96223 13.6608L9.27507 11.7826ZM7.9209 12H5.06348V14H7.9209V12ZM5.06348 12C4.53795 12 4.09061 11.9221 3.7093 11.7826L3.02214 13.6608C3.65515 13.8924 4.33966 14 5.06348 14V12ZM3.7093 11.7826C3.30713 11.6354 2.98775 11.4435 2.73444 11.2164L1.39935 12.7055C1.86349 13.1216 2.40999 13.4368 3.02214 13.6608L3.7093 11.7826ZM2.74086 11.2222C2.48731 10.9909 2.29718 10.728 2.16266 10.4286L0.33832 11.2482C0.587256 11.8023 0.9414 12.2878 1.39293 12.6997L2.74086 11.2222ZM2.16484 10.4335C2.03067 10.1305 1.96289 9.81099 1.96289 9.46533H-0.0371094C-0.0371094 10.0845 0.0868469 10.6804 0.336139 11.2433L2.16484 10.4335ZM1.96289 9.46533V3.82471H-0.0371094V9.46533H1.96289ZM1.96289 3.82471C1.96289 3.47904 2.03064 3.16459 2.16266 2.87075L0.33832 2.05112C0.0868685 2.6108 -0.0371094 3.20553 -0.0371094 3.82471H1.96289ZM2.16484 2.86586C2.29999 2.56068 2.48989 2.29682 2.74086 2.06787L1.39293 0.590336C0.938819 1.00461 0.584448 1.49531 0.336139 2.05601L2.16484 2.86586ZM2.73444 2.07367C2.98775 1.84657 3.30713 1.65462 3.7093 1.50748L3.02214 -0.370763C2.40999 -0.146807 1.86349 0.168408 1.39935 0.584532L2.73444 2.07367ZM3.7093 1.50748C4.09061 1.36798 4.53795 1.29004 5.06348 1.29004V-0.709961C4.33966 -0.709961 3.65515 -0.602354 3.02214 -0.370763L3.7093 1.50748ZM5.06348 1.29004H7.9209V-0.709961H5.06348V1.29004ZM8.77441 9.79736H9.83203V7.79736H8.77441V9.79736ZM10.8265 8.69191L10.0935 1.78029L8.1047 1.99119L8.83761 8.90281L10.8265 8.69191ZM9.80623 1.17864L9.23103 0.60344L7.81682 2.01765L8.39201 2.59285L9.80623 1.17864ZM8.67263 0.321665L7.43874 0.136118L7.14134 2.11388L8.37522 2.29943L8.67263 0.321665ZM7.29004 0.125H6.29736V2.125H7.29004V0.125ZM6.14866 0.136118L4.91477 0.321665L5.21218 2.29943L6.44607 2.11388L6.14866 0.136118ZM4.35064 0.609212L3.78473 1.18441L5.21039 2.58708L5.77631 2.01188L4.35064 0.609212ZM3.50356 1.77634L2.74282 8.68796L4.73081 8.90677L5.49156 1.99515L3.50356 1.77634ZM3.73682 9.79736H4.84082V7.79736H3.73682V9.79736ZM5.83801 8.87227L5.98645 6.8962L3.99207 6.74638L3.84363 8.72246L5.83801 8.87227ZM5.9834 6.92935L6.07618 6.07583L4.08789 5.85971L3.99511 6.71323L5.9834 6.92935ZM5.08203 6.96777H8.50537V4.96777H5.08203V6.96777ZM7.51123 6.07583L7.604 6.92935L9.59229 6.71323L9.49952 5.85971L7.51123 6.07583ZM7.6021 6.91014L7.77837 8.88621L9.77046 8.70851L9.59419 6.73244L7.6021 6.91014ZM7.12871 2.33366C7.17297 2.84582 7.22374 3.3317 7.28116 3.79103L9.26572 3.54296C9.2118 3.11166 9.16361 2.65125 9.12129 2.16146L7.12871 2.33366ZM7.28116 3.79103C7.3357 4.22736 7.38737 4.68919 7.43612 5.17665L9.42619 4.97764C9.37598 4.47553 9.3225 3.99725 9.26572 3.54296L7.28116 3.79103ZM8.43115 4.07715H5.16553V6.07715H8.43115V4.07715ZM6.16072 5.17504L6.43905 2.34545L4.44865 2.14967L4.17033 4.97926L6.16072 5.17504ZM5.55038 3.24187C5.74322 3.22121 5.92321 3.19561 6.08528 3.1632L5.69304 1.20204C5.60772 1.2191 5.49083 1.2368 5.33731 1.25325L5.55038 3.24187ZM6.07627 3.16496C6.18706 3.14385 6.32273 3.12155 6.48517 3.09835L6.20233 1.11845C6.01841 1.14472 5.85103 1.1719 5.70205 1.20028L6.07627 3.16496ZM6.34375 3.1084H7.25293V1.1084H6.34375V3.1084ZM7.09535 3.0959L7.96742 3.23506L8.28258 1.26005L7.41051 1.12089L7.09535 3.0959ZM19.9814 7.81396H20.9814V6.81396H19.9814V7.81396ZM17.1333 7.81396H16.1333V8.81396H17.1333V7.81396ZM17.1333 1.125H18.1333V0.125H17.1333V1.125ZM16.1499 1.125V0.125H15.1499V1.125H16.1499ZM16.1499 8.79736H15.1499V9.79736H16.1499V8.79736ZM19.9814 8.79736V9.79736H20.9814V8.79736H19.9814ZM21.8926 1.3291L21.2186 2.0679L21.225 2.07367L21.8926 1.3291ZM22.7183 2.46094L21.8039 2.86587L21.8061 2.87075L22.7183 2.46094ZM22.7183 10.8384L23.6304 11.2482L23.6326 11.2433L22.7183 10.8384ZM21.8926 11.9609L21.225 11.2163L21.2186 11.2222L21.8926 11.9609ZM13.0513 11.9609L12.3773 12.6997L12.3837 12.7055L13.0513 11.9609ZM12.2349 10.8384L11.3205 11.2433L11.3227 11.2482L12.2349 10.8384ZM12.2349 2.46094L13.147 2.87076L13.1492 2.86586L12.2349 2.46094ZM13.0513 1.3291L12.3837 0.584504L12.3773 0.590336L13.0513 1.3291ZM19.9814 6.81396H17.1333V8.81396H19.9814V6.81396ZM18.1333 7.81396V1.125H16.1333V7.81396H18.1333ZM17.1333 0.125H16.1499V2.125H17.1333V0.125ZM15.1499 1.125V8.79736H17.1499V1.125H15.1499ZM16.1499 9.79736H19.9814V7.79736H16.1499V9.79736ZM20.9814 8.79736V7.81396H18.9814V8.79736H20.9814ZM18.9053 1.29004C19.4308 1.29004 19.8781 1.36798 20.2594 1.50748L20.9466 -0.370763C20.3136 -0.602354 19.6291 -0.709961 18.9053 -0.709961V1.29004ZM20.2594 1.50748C20.6605 1.65421 20.974 1.84468 21.2186 2.06787L22.5665 0.590336C22.1061 0.170297 21.5599 -0.146398 20.9466 -0.370763L20.2594 1.50748ZM21.225 2.07367C21.4803 2.30251 21.6705 2.56464 21.8039 2.86586L23.6326 2.05601C23.3825 1.49135 23.0223 0.998918 22.5601 0.584532L21.225 2.07367ZM21.8061 2.87075C21.9381 3.16459 22.0059 3.47904 22.0059 3.82471H24.0059C24.0059 3.20553 23.8819 2.6108 23.6304 2.05112L21.8061 2.87075ZM22.0059 3.82471V9.46533H24.0059V3.82471H22.0059ZM22.0059 9.46533C22.0059 9.81099 21.9381 10.1305 21.8039 10.4335L23.6326 11.2433C23.8819 10.6804 24.0059 10.0845 24.0059 9.46533H22.0059ZM21.8061 10.4286C21.6733 10.724 21.4829 10.9852 21.225 11.2164L22.5601 12.7055C23.0197 12.2935 23.3797 11.8062 23.6304 11.2482L21.8061 10.4286ZM21.2186 11.2222C20.974 11.4454 20.6605 11.6358 20.2594 11.7826L20.9466 13.6608C21.5599 13.4364 22.1061 13.1197 22.5665 12.6997L21.2186 11.2222ZM20.2594 11.7826C19.8781 11.9221 19.4308 12 18.9053 12V14C19.6291 14 20.3136 13.8924 20.9466 13.6608L20.2594 11.7826ZM18.9053 12H16.0479V14H18.9053V12ZM16.0479 12C15.5223 12 15.075 11.9221 14.6937 11.7826L14.0065 13.6608C14.6395 13.8924 15.324 14 16.0479 14V12ZM14.6937 11.7826C14.2915 11.6354 13.9721 11.4435 13.7188 11.2164L12.3837 12.7055C12.8479 13.1216 13.3944 13.4368 14.0065 13.6608L14.6937 11.7826ZM13.7252 11.2222C13.4717 10.9909 13.2816 10.728 13.147 10.4286L11.3227 11.2482C11.5716 11.8023 11.9258 12.2878 12.3773 12.6997L13.7252 11.2222ZM13.1492 10.4335C13.015 10.1305 12.9473 9.81099 12.9473 9.46533H10.9473C10.9473 10.0845 11.0712 10.6804 11.3205 11.2433L13.1492 10.4335ZM12.9473 9.46533V3.82471H10.9473V9.46533H12.9473ZM12.9473 3.82471C12.9473 3.47904 13.015 3.16459 13.147 2.87075L11.3227 2.05112C11.0712 2.6108 10.9473 3.20553 10.9473 3.82471H12.9473ZM13.1492 2.86586C13.2844 2.56068 13.4743 2.29682 13.7252 2.06787L12.3773 0.590336C11.9232 1.00461 11.5688 1.49531 11.3205 2.05601L13.1492 2.86586ZM13.7188 2.07367C13.9721 1.84657 14.2915 1.65462 14.6937 1.50748L14.0065 -0.370763C13.3944 -0.146807 12.8479 0.168408 12.3837 0.584532L13.7188 2.07367ZM14.6937 1.50748C15.075 1.36798 15.5223 1.29004 16.0479 1.29004V-0.709961C15.324 -0.709961 14.6395 -0.602354 14.0065 -0.370763L14.6937 1.50748ZM16.0479 1.29004H18.9053V-0.709961H16.0479V1.29004ZM27.8301 2.08984V1.08984H27.7162L27.6052 1.11545L27.8301 2.08984ZM30.2422 2.08984L30.405 1.10319L30.3242 1.08984H30.2422V2.08984ZM31.1978 2.24756L31.0349 3.23421L32.0009 3.39364L32.1807 2.43129L31.1978 2.24756ZM31.3833 1.25488L32.3663 1.43862L32.5623 0.389919L31.5031 0.262087L31.3833 1.25488ZM30.3071 1.125L30.4269 0.132204L30.3673 0.125H30.3071V1.125ZM27.8115 1.125V0.125H27.7336L27.6566 0.13708L27.8115 1.125ZM26.8652 1.27344L26.7103 0.285518L26.3885 0.335997L26.1581 0.566331L26.8652 1.27344ZM26.2715 1.86719L25.5644 1.16008L25.3378 1.38668L25.2851 1.70279L26.2715 1.86719ZM26.1416 2.64648L25.1552 2.48209L25.1416 2.56372V2.64648H26.1416ZM26.1416 7.30371H25.1416V7.38457L25.1546 7.46439L26.1416 7.30371ZM26.2715 8.10156L25.2845 8.26224L25.3384 8.59331L25.581 8.82492L26.2715 8.10156ZM26.8838 8.68604L26.1933 9.40939L26.4341 9.63925L26.7646 9.67891L26.8838 8.68604ZM27.8115 8.79736L27.6924 9.79024L27.7517 9.79736H27.8115V8.79736ZM30.1309 8.79736V9.79736H30.1901L30.2488 9.79038L30.1309 8.79736ZM31.0679 8.68604L31.1859 9.67905L31.5213 9.6392L31.7638 9.4041L31.0679 8.68604ZM31.6709 8.10156L32.3669 8.81963L32.6047 8.58913L32.6579 8.26224L31.6709 8.10156ZM31.8008 7.30371L32.7878 7.46439L32.8008 7.38457V7.30371H31.8008ZM31.8008 4.86377H32.8008V3.86377H31.8008V4.86377ZM29.1104 4.86377V3.86377H28.1104V4.86377H29.1104ZM29.1104 5.85645H28.1104V6.85645H29.1104V5.85645ZM30.8174 5.85645H31.8174V4.85645H30.8174V5.85645ZM30.8174 7.16455L31.7719 7.46283L31.8174 7.31716V7.16455H30.8174ZM30.6875 7.72119L30.8373 8.70991L31.4555 8.61624L31.642 8.01947L30.6875 7.72119ZM30.0752 7.81396V8.81396H30.1505L30.225 8.80268L30.0752 7.81396ZM27.8301 7.81396L27.6683 8.80079L27.7487 8.81396H27.8301V7.81396ZM27.2642 7.72119L26.2873 7.93489L26.4324 8.59818L27.1024 8.70802L27.2642 7.72119ZM27.1343 7.12744H26.1343V7.23554L26.1574 7.34114L27.1343 7.12744ZM27.1343 2.73926L26.1504 2.56037L26.1343 2.64909V2.73926H27.1343ZM27.2271 2.229L27.0022 1.25461L26.3609 1.4026L26.2432 2.05012L27.2271 2.229ZM32.877 1.3291L32.203 2.0679L32.2094 2.07367L32.877 1.3291ZM33.7026 2.46094L32.7883 2.86587L32.7905 2.87075L33.7026 2.46094ZM33.7026 10.8384L34.6148 11.2482L34.617 11.2433L33.7026 10.8384ZM32.877 11.9609L32.2094 11.2163L32.203 11.2222L32.877 11.9609ZM24.0356 11.9609L23.3617 12.6997L23.3681 12.7055L24.0356 11.9609ZM23.2192 10.8384L22.3049 11.2433L22.3071 11.2482L23.2192 10.8384ZM23.2192 2.46094L24.1314 2.87076L24.1336 2.86586L23.2192 2.46094ZM24.0356 1.3291L23.3681 0.584504L23.3617 0.590336L24.0356 1.3291ZM27.8301 3.08984H30.2422V1.08984H27.8301V3.08984ZM30.0793 3.0765L31.0349 3.23421L31.3606 1.26091L30.405 1.10319L30.0793 3.0765ZM32.1807 2.43129L32.3663 1.43862L30.4003 1.07115L30.2148 2.06382L32.1807 2.43129ZM31.5031 0.262087L30.4269 0.132204L30.1873 2.1178L31.2635 2.24768L31.5031 0.262087ZM30.3071 0.125H27.8115V2.125H30.3071V0.125ZM27.6566 0.13708L26.7103 0.285518L27.0202 2.26136L27.9665 2.11292L27.6566 0.13708ZM26.1581 0.566331L25.5644 1.16008L26.9786 2.57429L27.5723 1.98054L26.1581 0.566331ZM25.2851 1.70279L25.1552 2.48209L27.128 2.81088L27.2579 2.03159L25.2851 1.70279ZM25.1416 2.64648V7.30371H27.1416V2.64648H25.1416ZM25.1546 7.46439L25.2845 8.26224L27.2585 7.94089L27.1286 7.14304L25.1546 7.46439ZM25.581 8.82492L26.1933 9.40939L27.5743 7.96268L26.962 7.37821L25.581 8.82492ZM26.7646 9.67891L27.6924 9.79024L27.9307 7.80449L27.0029 7.69316L26.7646 9.67891ZM27.8115 9.79736H30.1309V7.79736H27.8115V9.79736ZM30.2488 9.79038L31.1859 9.67905L30.9499 7.69302L30.0129 7.80435L30.2488 9.79038ZM31.7638 9.4041L32.3669 8.81963L30.9749 7.38349L30.3719 7.96797L31.7638 9.4041ZM32.6579 8.26224L32.7878 7.46439L30.8138 7.14304L30.6839 7.94089L32.6579 8.26224ZM32.8008 7.30371V4.86377H30.8008V7.30371H32.8008ZM31.8008 3.86377H29.1104V5.86377H31.8008V3.86377ZM28.1104 4.86377V5.85645H30.1104V4.86377H28.1104ZM29.1104 6.85645H30.8174V4.85645H29.1104V6.85645ZM29.8174 5.85645V7.16455H31.8174V5.85645H29.8174ZM29.8629 6.86628C29.8188 7.00738 29.7837 7.15303 29.7625 7.30145L31.7424 7.58429C31.7459 7.55953 31.7541 7.51964 31.7719 7.46283L29.8629 6.86628ZM29.7625 7.30145C29.759 7.32621 29.7508 7.3661 29.733 7.42292L31.642 8.01947C31.6861 7.87837 31.7212 7.73271 31.7424 7.58429L29.7625 7.30145ZM30.5377 6.73248L29.9254 6.82525L30.225 8.80268L30.8373 8.70991L30.5377 6.73248ZM30.0752 6.81396H27.8301V8.81396H30.0752V6.81396ZM27.9919 6.82714L27.4259 6.73436L27.1024 8.70802L27.6683 8.80079L27.9919 6.82714ZM28.2411 7.50749L28.1112 6.91374L26.1574 7.34114L26.2873 7.93489L28.2411 7.50749ZM28.1343 7.12744V2.73926H26.1343V7.12744H28.1343ZM28.1181 2.91814L28.2109 2.40789L26.2432 2.05012L26.1504 2.56037L28.1181 2.91814ZM27.4519 3.2034L28.0549 3.06423L27.6052 1.11545L27.0022 1.25461L27.4519 3.2034ZM29.8896 1.29004C30.4152 1.29004 30.8625 1.36798 31.2438 1.50748L31.931 -0.370763C31.298 -0.602354 30.6135 -0.709961 29.8896 -0.709961V1.29004ZM31.2438 1.50748C31.6449 1.65421 31.9583 1.84468 32.203 2.06787L33.5509 0.590336C33.0905 0.170297 32.5442 -0.146398 31.931 -0.370763L31.2438 1.50748ZM32.2094 2.07367C32.4647 2.30251 32.6549 2.56464 32.7883 2.86586L34.617 2.05601C34.3669 1.49135 34.0067 0.998918 33.5445 0.584532L32.2094 2.07367ZM32.7905 2.87075C32.9225 3.16459 32.9902 3.47904 32.9902 3.82471H34.9902C34.9902 3.20553 34.8663 2.6108 34.6148 2.05112L32.7905 2.87075ZM32.9902 3.82471V9.46533H34.9902V3.82471H32.9902ZM32.9902 9.46533C32.9902 9.81099 32.9225 10.1305 32.7883 10.4335L34.617 11.2433C34.8663 10.6804 34.9902 10.0845 34.9902 9.46533H32.9902ZM32.7905 10.4286C32.6577 10.724 32.4673 10.9852 32.2094 11.2164L33.5445 12.7055C34.0041 12.2935 34.3641 11.8062 34.6148 11.2482L32.7905 10.4286ZM32.203 11.2222C31.9583 11.4454 31.6449 11.6358 31.2438 11.7826L31.931 13.6608C32.5442 13.4364 33.0905 13.1197 33.5509 12.6997L32.203 11.2222ZM31.2438 11.7826C30.8625 11.9221 30.4152 12 29.8896 12V14C30.6135 14 31.298 13.8924 31.931 13.6608L31.2438 11.7826ZM29.8896 12H27.0322V14H29.8896V12ZM27.0322 12C26.5067 12 26.0594 11.9221 25.6781 11.7826L24.9909 13.6608C25.6239 13.8924 26.3084 14 27.0322 14V12ZM25.6781 11.7826C25.2759 11.6354 24.9565 11.4435 24.7032 11.2164L23.3681 12.7055C23.8322 13.1216 24.3787 13.4368 24.9909 13.6608L25.6781 11.7826ZM24.7096 11.2222C24.4561 10.9909 24.2659 10.728 24.1314 10.4286L22.3071 11.2482C22.556 11.8023 22.9102 12.2878 23.3617 12.6997L24.7096 11.2222ZM24.1336 10.4335C23.9994 10.1305 23.9316 9.81099 23.9316 9.46533H21.9316C21.9316 10.0845 22.0556 10.6804 22.3049 11.2433L24.1336 10.4335ZM23.9316 9.46533V3.82471H21.9316V9.46533H23.9316ZM23.9316 3.82471C23.9316 3.47904 23.9994 3.16459 24.1314 2.87075L22.3071 2.05112C22.0556 2.6108 21.9316 3.20553 21.9316 3.82471H23.9316ZM24.1336 2.86586C24.2687 2.56068 24.4586 2.29682 24.7096 2.06787L23.3617 0.590336C22.9076 1.00461 22.5532 1.49531 22.3049 2.05601L24.1336 2.86586ZM24.7032 2.07367C24.9565 1.84657 25.2759 1.65462 25.6781 1.50748L24.9909 -0.370763C24.3787 -0.146807 23.8322 0.168408 23.3681 0.584532L24.7032 2.07367ZM25.6781 1.50748C26.0594 1.36798 26.5067 1.29004 27.0322 1.29004V-0.709961C26.3084 -0.709961 25.6239 -0.602354 24.9909 -0.370763L25.6781 1.50748ZM27.0322 1.29004H29.8896V-0.709961H27.0322V1.29004ZM42.3491 7.81396H43.3491V6.81396H42.3491V7.81396ZM38.6475 7.81396H37.6475V8.81396H38.6475V7.81396ZM38.6475 5.45752V4.45752H37.6475V5.45752H38.6475ZM41.7461 5.45752V6.45752H42.7461V5.45752H41.7461ZM41.7461 4.4834H42.7461V3.4834H41.7461V4.4834ZM38.6475 4.4834H37.6475V5.4834H38.6475V4.4834ZM38.6475 2.1084V1.1084H37.6475V2.1084H38.6475ZM42.2192 2.1084V3.1084H43.2192V2.1084H42.2192ZM42.2192 1.125H43.2192V0.125H42.2192V1.125ZM37.6826 1.125V0.125H36.6826V1.125H37.6826ZM37.6826 8.79736H36.6826V9.79736H37.6826V8.79736ZM42.3491 8.79736V9.79736H43.3491V8.79736H42.3491ZM43.8613 1.3291L43.1873 2.0679L43.1938 2.07367L43.8613 1.3291ZM44.687 2.46094L43.7726 2.86587L43.7748 2.87075L44.687 2.46094ZM44.687 10.8384L45.5992 11.2482L45.6014 11.2433L44.687 10.8384ZM43.8613 11.9609L43.1938 11.2163L43.1874 11.2222L43.8613 11.9609ZM35.02 11.9609L34.346 12.6997L34.3525 12.7055L35.02 11.9609ZM34.2036 10.8384L33.2893 11.2433L33.2914 11.2482L34.2036 10.8384ZM34.2036 2.46094L35.1158 2.87076L35.118 2.86586L34.2036 2.46094ZM35.02 1.3291L34.3524 0.584504L34.3461 0.590336L35.02 1.3291ZM42.3491 6.81396H38.6475V8.81396H42.3491V6.81396ZM39.6475 7.81396V5.45752H37.6475V7.81396H39.6475ZM38.6475 6.45752H41.7461V4.45752H38.6475V6.45752ZM42.7461 5.45752V4.4834H40.7461V5.45752H42.7461ZM41.7461 3.4834H38.6475V5.4834H41.7461V3.4834ZM39.6475 4.4834V2.1084H37.6475V4.4834H39.6475ZM38.6475 3.1084H42.2192V1.1084H38.6475V3.1084ZM43.2192 2.1084V1.125H41.2192V2.1084H43.2192ZM42.2192 0.125H37.6826V2.125H42.2192V0.125ZM36.6826 1.125V8.79736H38.6826V1.125H36.6826ZM37.6826 9.79736H42.3491V7.79736H37.6826V9.79736ZM43.3491 8.79736V7.81396H41.3491V8.79736H43.3491ZM40.874 1.29004C41.3996 1.29004 41.8469 1.36798 42.2282 1.50748L42.9154 -0.370763C42.2823 -0.602354 41.5978 -0.709961 40.874 -0.709961V1.29004ZM42.2282 1.50748C42.6293 1.65421 42.9427 1.84468 43.1874 2.06787L44.5353 0.590336C44.0749 0.170297 43.5286 -0.146398 42.9154 -0.370763L42.2282 1.50748ZM43.1938 2.07367C43.449 2.30251 43.6393 2.56464 43.7727 2.86586L45.6014 2.05601C45.3513 1.49135 44.9911 0.998918 44.5289 0.584532L43.1938 2.07367ZM43.7748 2.87075C43.9069 3.16459 43.9746 3.47904 43.9746 3.82471H45.9746C45.9746 3.20553 45.8506 2.6108 45.5992 2.05112L43.7748 2.87075ZM43.9746 3.82471V9.46533H45.9746V3.82471H43.9746ZM43.9746 9.46533C43.9746 9.81099 43.9068 10.1305 43.7727 10.4335L45.6014 11.2433C45.8507 10.6804 45.9746 10.0845 45.9746 9.46533H43.9746ZM43.7748 10.4286C43.6421 10.724 43.4517 10.9852 43.1938 11.2164L44.5289 12.7055C44.9884 12.2935 45.3485 11.8062 45.5992 11.2482L43.7748 10.4286ZM43.1874 11.2222C42.9427 11.4454 42.6293 11.6358 42.2282 11.7826L42.9154 13.6608C43.5286 13.4364 44.0749 13.1197 44.5353 12.6997L43.1874 11.2222ZM42.2282 11.7826C41.8469 11.9221 41.3996 12 40.874 12V14C41.5978 14 42.2823 13.8924 42.9154 13.6608L42.2282 11.7826ZM40.874 12H38.0166V14H40.874V12ZM38.0166 12C37.4911 12 37.0437 11.9221 36.6624 11.7826L35.9753 13.6608C36.6083 13.8924 37.2928 14 38.0166 14V12ZM36.6624 11.7826C36.2603 11.6354 35.9409 11.4435 35.6876 11.2164L34.3525 12.7055C34.8166 13.1216 35.3631 13.4368 35.9753 13.6608L36.6624 11.7826ZM35.694 11.2222C35.4404 10.9909 35.2503 10.728 35.1158 10.4286L33.2914 11.2482C33.5404 11.8023 33.8945 12.2878 34.3461 12.6997L35.694 11.2222ZM35.118 10.4335C34.9838 10.1305 34.916 9.81099 34.916 9.46533H32.916C32.916 10.0845 33.04 10.6804 33.2893 11.2433L35.118 10.4335ZM34.916 9.46533V3.82471H32.916V9.46533H34.916ZM34.916 3.82471C34.916 3.47904 34.9838 3.16459 35.1158 2.87075L33.2914 2.05112C33.04 2.6108 32.916 3.20553 32.916 3.82471H34.916ZM35.118 2.86586C35.2531 2.56068 35.443 2.29682 35.694 2.06787L34.3461 0.590336C33.8919 1.00461 33.5376 1.49531 33.2893 2.05601L35.118 2.86586ZM35.6876 2.07367C35.9409 1.84657 36.2603 1.65462 36.6624 1.50748L35.9753 -0.370763C35.3631 -0.146807 34.8166 0.168408 34.3525 0.584532L35.6876 2.07367ZM36.6624 1.50748C37.0437 1.36798 37.4911 1.29004 38.0166 1.29004V-0.709961C37.2928 -0.709961 36.6083 -0.602354 35.9753 -0.370763L36.6624 1.50748ZM38.0166 1.29004H40.874V-0.709961H38.0166V1.29004ZM54.8457 1.3291L54.1717 2.0679L54.1782 2.07367L54.8457 1.3291ZM55.6714 2.46094L54.757 2.86587L54.7592 2.87075L55.6714 2.46094ZM55.6714 10.8384L56.5836 11.2482L56.5857 11.2433L55.6714 10.8384ZM54.8457 11.9609L54.1781 11.2163L54.1717 11.2222L54.8457 11.9609ZM46.0044 11.9609L45.3304 12.6997L45.3368 12.7055L46.0044 11.9609ZM45.188 10.8384L44.2736 11.2433L44.2758 11.2482L45.188 10.8384ZM45.188 2.46094L46.1002 2.87076L46.1023 2.86586L45.188 2.46094ZM46.0044 1.3291L45.3368 0.584504L45.3304 0.590336L46.0044 1.3291ZM53.3521 5.85645H54.3521V5.73012L54.3206 5.60776L53.3521 5.85645ZM53.1758 5.16992L54.1444 4.92123L54.0231 4.44913L53.5766 4.25376L53.1758 5.16992ZM52.4336 4.84521L52.0825 3.90889L49.7757 4.77391L52.0328 5.76137L52.4336 4.84521ZM53.1758 4.56689L53.5269 5.50322L54.0186 5.31885L54.1459 4.80943L53.1758 4.56689ZM53.3521 3.86182L54.3222 4.10435L54.3521 3.98492V3.86182H53.3521ZM53.3521 2.62793H54.3521V2.54517L54.3384 2.46353L53.3521 2.62793ZM53.2222 1.84863L54.2086 1.68423L54.1566 1.37241L53.9348 1.14712L53.2222 1.84863ZM52.6377 1.25488L53.3503 0.553366L53.1108 0.30999L52.7724 0.263994L52.6377 1.25488ZM51.6821 1.125L51.8168 0.134111L51.7498 0.125H51.6821V1.125ZM47.7856 1.125V0.125H46.7856V1.125H47.7856ZM47.7856 8.79736H46.7856V9.79736H47.7856V8.79736ZM51.6821 8.79736V9.79736H51.7402L51.7979 9.79064L51.6821 8.79736ZM52.6377 8.68604L52.7534 9.67932L53.0989 9.63907L53.3448 9.39314L52.6377 8.68604ZM53.2222 8.10156L53.9293 8.80867L54.1559 8.58207L54.2086 8.26596L53.2222 8.10156ZM53.3521 7.32227L54.3384 7.48666L54.3521 7.40503V7.32227H53.3521ZM52.2388 7.72119L52.3886 8.70991L53.0411 8.61103L53.2068 7.97215L52.2388 7.72119ZM51.6265 7.81396V8.81396H51.7018L51.7763 8.80268L51.6265 7.81396ZM48.7783 7.81396H47.7783V8.81396H48.7783V7.81396ZM48.7783 5.36475V4.36475H47.7783V5.36475H48.7783ZM51.645 5.36475L51.7619 4.3716L51.7036 4.36475H51.645V5.36475ZM52.2759 5.43896L53.2618 5.27186L53.1366 4.53333L52.3927 4.44581L52.2759 5.43896ZM52.3687 5.98633H53.3687V5.90218L53.3546 5.81922L52.3687 5.98633ZM52.3687 7.22021L53.3366 7.47118L53.3687 7.34774V7.22021H52.3687ZM52.2388 4.2793L52.4177 5.26317L53.0432 5.14943L53.2056 4.53469L52.2388 4.2793ZM51.6265 4.39062V5.39062H51.7166L51.8054 5.37449L51.6265 4.39062ZM48.7783 4.39062H47.7783V5.39062H48.7783V4.39062ZM48.7783 2.1084V1.1084H47.7783V2.1084H48.7783ZM51.6265 2.1084L51.7817 1.12052L51.7046 1.1084H51.6265V2.1084ZM52.2759 2.21045L53.2736 2.27809L53.3355 1.36469L52.4311 1.22257L52.2759 2.21045ZM52.2388 2.75781L51.2411 2.69017L51.2345 2.78683L51.2466 2.88295L52.2388 2.75781ZM52.3687 3.7876L53.3355 4.04299L53.3851 3.85518L53.3608 3.66246L52.3687 3.7876ZM51.8584 1.29004C52.3839 1.29004 52.8313 1.36798 53.2126 1.50748L53.8997 -0.370763C53.2667 -0.602354 52.5822 -0.709961 51.8584 -0.709961V1.29004ZM53.2126 1.50748C53.6136 1.65421 53.9271 1.84468 54.1717 2.06787L55.5197 0.590336C55.0592 0.170297 54.513 -0.146398 53.8997 -0.370763L53.2126 1.50748ZM54.1782 2.07367C54.4334 2.30251 54.6236 2.56464 54.757 2.86586L56.5857 2.05601C56.3357 1.49135 55.9754 0.998918 55.5132 0.584532L54.1782 2.07367ZM54.7592 2.87075C54.8912 3.16459 54.959 3.47904 54.959 3.82471H56.959C56.959 3.20553 56.835 2.6108 56.5836 2.05112L54.7592 2.87075ZM54.959 3.82471V9.46533H56.959V3.82471H54.959ZM54.959 9.46533C54.959 9.81099 54.8912 10.1305 54.757 10.4335L56.5857 11.2433C56.835 10.6804 56.959 10.0845 56.959 9.46533H54.959ZM54.7592 10.4286C54.6265 10.724 54.436 10.9852 54.1782 11.2164L55.5132 12.7055C55.9728 12.2935 56.3328 11.8062 56.5836 11.2482L54.7592 10.4286ZM54.1717 11.2222C53.9271 11.4454 53.6136 11.6358 53.2126 11.7826L53.8997 13.6608C54.513 13.4364 55.0592 13.1197 55.5197 12.6997L54.1717 11.2222ZM53.2126 11.7826C52.8313 11.9221 52.3839 12 51.8584 12V14C52.5822 14 53.2667 13.8924 53.8997 13.6608L53.2126 11.7826ZM51.8584 12H49.001V14H51.8584V12ZM49.001 12C48.4754 12 48.0281 11.9221 47.6468 11.7826L46.9596 13.6608C47.5927 13.8924 48.2772 14 49.001 14V12ZM47.6468 11.7826C47.2446 11.6354 46.9252 11.4435 46.6719 11.2164L45.3368 12.7055C45.801 13.1216 46.3475 13.4368 46.9596 13.6608L47.6468 11.7826ZM46.6784 11.2222C46.4248 10.9909 46.2347 10.728 46.1002 10.4286L44.2758 11.2482C44.5248 11.8023 44.8789 12.2878 45.3304 12.6997L46.6784 11.2222ZM46.1023 10.4335C45.9682 10.1305 45.9004 9.81099 45.9004 9.46533H43.9004C43.9004 10.0845 44.0243 10.6804 44.2736 11.2433L46.1023 10.4335ZM45.9004 9.46533V3.82471H43.9004V9.46533H45.9004ZM45.9004 3.82471C45.9004 3.47904 45.9681 3.16459 46.1002 2.87075L44.2758 2.05112C44.0244 2.6108 43.9004 3.20553 43.9004 3.82471H45.9004ZM46.1023 2.86586C46.2375 2.56068 46.4274 2.29682 46.6784 2.06787L45.3304 0.590336C44.8763 1.00461 44.5219 1.49531 44.2736 2.05601L46.1023 2.86586ZM46.6719 2.07367C46.9252 1.84657 47.2446 1.65462 47.6468 1.50748L46.9596 -0.370763C46.3475 -0.146807 45.801 0.168408 45.3368 0.584532L46.6719 2.07367ZM47.6468 1.50748C48.0281 1.36798 48.4754 1.29004 49.001 1.29004V-0.709961C48.2772 -0.709961 47.5927 -0.602354 46.9596 -0.370763L47.6468 1.50748ZM49.001 1.29004H51.8584V-0.709961H49.001V1.29004ZM54.3206 5.60776L54.1444 4.92123L52.2072 5.41861L52.3835 6.10514L54.3206 5.60776ZM53.5766 4.25376L52.8344 3.92906L52.0328 5.76137L52.775 6.08608L53.5766 4.25376ZM52.7847 5.78154L53.5269 5.50322L52.8247 3.63057L52.0825 3.90889L52.7847 5.78154ZM54.1459 4.80943L54.3222 4.10435L52.3819 3.61928L52.2056 4.32436L54.1459 4.80943ZM54.3521 3.86182V2.62793H52.3521V3.86182H54.3521ZM54.3384 2.46353L54.2086 1.68423L52.2358 2.01303L52.3657 2.79233L54.3384 2.46353ZM53.9348 1.14712L53.3503 0.553366L51.925 1.9564L52.5095 2.55015L53.9348 1.14712ZM52.7724 0.263994L51.8168 0.134111L51.5474 2.11589L52.503 2.24577L52.7724 0.263994ZM51.6821 0.125H47.7856V2.125H51.6821V0.125ZM46.7856 1.125V8.79736H48.7856V1.125H46.7856ZM47.7856 9.79736H51.6821V7.79736H47.7856V9.79736ZM51.7979 9.79064L52.7534 9.67932L52.522 7.69275L51.5664 7.80408L51.7979 9.79064ZM53.3448 9.39314L53.9293 8.80867L52.5151 7.39446L51.9306 7.97893L53.3448 9.39314ZM54.2086 8.26596L54.3384 7.48666L52.3657 7.15787L52.2358 7.93716L54.2086 8.26596ZM54.3521 7.32227V5.85645H52.3521V7.32227H54.3521ZM52.089 6.73248L51.4767 6.82525L51.7763 8.80268L52.3886 8.70991L52.089 6.73248ZM51.6265 6.81396H48.7783V8.81396H51.6265V6.81396ZM49.7783 7.81396V5.36475H47.7783V7.81396H49.7783ZM48.7783 6.36475H51.645V4.36475H48.7783V6.36475ZM51.5282 6.3579L52.159 6.43212L52.3927 4.44581L51.7619 4.3716L51.5282 6.3579ZM51.2899 5.60607L51.3827 6.15344L53.3546 5.81922L53.2618 5.27186L51.2899 5.60607ZM51.3687 5.98633V7.22021H53.3687V5.98633H51.3687ZM51.4007 6.96925L51.2708 7.47023L53.2068 7.97215L53.3366 7.47118L51.4007 6.96925ZM52.0599 3.29543L51.4476 3.40676L51.8054 5.37449L52.4177 5.26317L52.0599 3.29543ZM51.6265 3.39062H48.7783V5.39062H51.6265V3.39062ZM49.7783 4.39062V2.1084H47.7783V4.39062H49.7783ZM48.7783 3.1084H51.6265V1.1084H48.7783V3.1084ZM51.4712 3.09628L52.1206 3.19833L52.4311 1.22257L51.7817 1.12052L51.4712 3.09628ZM51.2782 2.14281L51.2411 2.69017L53.2365 2.82545L53.2736 2.27809L51.2782 2.14281ZM51.2466 2.88295L51.3765 3.91273L53.3608 3.66246L53.2309 2.63268L51.2466 2.88295ZM51.4018 3.53221L51.2719 4.02391L53.2056 4.53469L53.3355 4.04299L51.4018 3.53221ZM65.8301 1.3291L65.1561 2.0679L65.1625 2.07367L65.8301 1.3291ZM66.6558 2.46094L65.7414 2.86587L65.7436 2.87075L66.6558 2.46094ZM66.6558 10.8384L67.5679 11.2482L67.5701 11.2433L66.6558 10.8384ZM65.8301 11.9609L65.1625 11.2163L65.1561 11.2222L65.8301 11.9609ZM56.9888 11.9609L56.3148 12.6997L56.3212 12.7055L56.9888 11.9609ZM56.1724 10.8384L55.258 11.2433L55.2602 11.2482L56.1724 10.8384ZM56.1724 2.46094L57.0845 2.87076L57.0867 2.86586L56.1724 2.46094ZM56.9888 1.3291L56.3212 0.584504L56.3148 0.590336L56.9888 1.3291ZM63.3159 6.50586H64.3159V6.36955L64.2794 6.23822L63.3159 6.50586ZM63.3159 8.79736H62.3159V9.79736H63.3159V8.79736ZM64.2993 8.79736V9.79736H65.2993V8.79736H64.2993ZM64.2993 6.40381H65.2993V6.22002L65.234 6.04824L64.2993 6.40381ZM63.9746 5.55029L64.9093 5.19472L64.7457 4.76493L64.313 4.6093L63.9746 5.55029ZM62.917 5.16992L62.4829 4.26904L60.3349 5.30399L62.5786 6.11091L62.917 5.16992ZM63.9375 4.67822L64.3716 5.57911L64.7472 5.39812L64.883 5.00389L63.9375 4.67822ZM64.2251 3.84326L65.1706 4.16893L65.2251 4.01066V3.84326H64.2251ZM64.2251 2.81348H65.2251V2.74241L65.215 2.67206L64.2251 2.81348ZM64.1138 2.03418L65.1037 1.89276L65.0658 1.62725L64.9001 1.41636L64.1138 2.03418ZM63.5015 1.25488L64.2878 0.637061L64.039 0.32038L63.6401 0.264541L63.5015 1.25488ZM62.5737 1.125L62.7124 0.134658L62.6434 0.125H62.5737V1.125ZM59.1133 1.125V0.125H58.1133V1.125H59.1133ZM59.1133 8.79736H58.1133V9.79736H59.1133V8.79736ZM60.106 8.79736V9.79736H61.106V8.79736H60.106ZM60.106 5.70801V4.70801H59.106V5.70801H60.106ZM62.5181 5.70801L62.929 4.79633L62.733 4.70801H62.5181V5.70801ZM63.1768 6.00488L64.1403 5.73724L64.0149 5.28574L63.5877 5.0932L63.1768 6.00488ZM62.5181 2.1084L62.9182 1.19195L62.7269 1.1084H62.5181V2.1084ZM63.1768 2.396L64.1696 2.27618L64.101 1.70839L63.5769 1.47954L63.1768 2.396ZM63.2417 2.93408H64.2417V2.87396L64.2345 2.81426L63.2417 2.93408ZM63.2417 3.91748L64.2065 4.1806L64.2417 4.0514V3.91748H63.2417ZM63.1025 4.42773L63.544 5.32499L63.9487 5.1259L64.0673 4.69085L63.1025 4.42773ZM62.5181 4.71533V5.71533H62.7508L62.9596 5.61259L62.5181 4.71533ZM60.106 4.71533H59.106V5.71533H60.106V4.71533ZM60.106 2.1084V1.1084H59.106V2.1084H60.106ZM62.8428 1.29004C63.3683 1.29004 63.8156 1.36798 64.1969 1.50748L64.8841 -0.370763C64.2511 -0.602354 63.5666 -0.709961 62.8428 -0.709961V1.29004ZM64.1969 1.50748C64.598 1.65421 64.9115 1.84468 65.1561 2.06787L66.504 0.590336C66.0436 0.170297 65.4974 -0.146398 64.8841 -0.370763L64.1969 1.50748ZM65.1625 2.07367C65.4178 2.30251 65.608 2.56464 65.7414 2.86586L67.5701 2.05601C67.32 1.49135 66.9598 0.998918 66.4976 0.584532L65.1625 2.07367ZM65.7436 2.87075C65.8756 3.16459 65.9434 3.47904 65.9434 3.82471H67.9434C67.9434 3.20553 67.8194 2.6108 67.5679 2.05112L65.7436 2.87075ZM65.9434 3.82471V9.46533H67.9434V3.82471H65.9434ZM65.9434 9.46533C65.9434 9.81099 65.8756 10.1305 65.7414 10.4335L67.5701 11.2433C67.8194 10.6804 67.9434 10.0845 67.9434 9.46533H65.9434ZM65.7436 10.4286C65.6108 10.724 65.4204 10.9852 65.1625 11.2164L66.4976 12.7055C66.9572 12.2935 67.3172 11.8062 67.5679 11.2482L65.7436 10.4286ZM65.1561 11.2222C64.9115 11.4454 64.598 11.6358 64.1969 11.7826L64.8841 13.6608C65.4974 13.4364 66.0436 13.1197 66.504 12.6997L65.1561 11.2222ZM64.1969 11.7826C63.8156 11.9221 63.3683 12 62.8428 12V14C63.5666 14 64.2511 13.8924 64.8841 13.6608L64.1969 11.7826ZM62.8428 12H59.9854V14H62.8428V12ZM59.9854 12C59.4598 12 59.0125 11.9221 58.6312 11.7826L57.944 13.6608C58.577 13.8924 59.2615 14 59.9854 14V12ZM58.6312 11.7826C58.229 11.6354 57.9096 11.4435 57.6563 11.2164L56.3212 12.7055C56.7854 13.1216 57.3319 13.4368 57.944 13.6608L58.6312 11.7826ZM57.6627 11.2222C57.4092 10.9909 57.2191 10.728 57.0845 10.4286L55.2602 11.2482C55.5091 11.8023 55.8633 12.2878 56.3148 12.6997L57.6627 11.2222ZM57.0867 10.4335C56.9525 10.1305 56.8848 9.81099 56.8848 9.46533H54.8848C54.8848 10.0845 55.0087 10.6804 55.258 11.2433L57.0867 10.4335ZM56.8848 9.46533V3.82471H54.8848V9.46533H56.8848ZM56.8848 3.82471C56.8848 3.47904 56.9525 3.16459 57.0845 2.87075L55.2602 2.05112C55.0087 2.6108 54.8848 3.20553 54.8848 3.82471H56.8848ZM57.0867 2.86586C57.2219 2.56068 57.4118 2.29682 57.6627 2.06787L56.3148 0.590336C55.8607 1.00461 55.5063 1.49531 55.258 2.05601L57.0867 2.86586ZM57.6563 2.07367C57.9096 1.84657 58.229 1.65462 58.6312 1.50748L57.944 -0.370763C57.3319 -0.146807 56.7854 0.168408 56.3212 0.584532L57.6563 2.07367ZM58.6312 1.50748C59.0125 1.36798 59.4598 1.29004 59.9854 1.29004V-0.709961C59.2615 -0.709961 58.577 -0.602354 57.944 -0.370763L58.6312 1.50748ZM59.9854 1.29004H62.8428V-0.709961H59.9854V1.29004ZM62.3159 6.50586V8.79736H64.3159V6.50586H62.3159ZM63.3159 9.79736H64.2993V7.79736H63.3159V9.79736ZM65.2993 8.79736V6.40381H63.2993V8.79736H65.2993ZM65.234 6.04824L64.9093 5.19472L63.04 5.90587L63.3647 6.75938L65.234 6.04824ZM64.313 4.6093L63.2554 4.22893L62.5786 6.11091L63.6362 6.49129L64.313 4.6093ZM63.3511 6.0708L64.3716 5.57911L63.5034 3.77734L62.4829 4.26904L63.3511 6.0708ZM64.883 5.00389L65.1706 4.16893L63.2796 3.51759L62.992 4.35256L64.883 5.00389ZM65.2251 3.84326V2.81348H63.2251V3.84326H65.2251ZM65.215 2.67206L65.1037 1.89276L63.1238 2.1756L63.2351 2.9549L65.215 2.67206ZM64.9001 1.41636L64.2878 0.637061L62.7151 1.8727L63.3275 2.652L64.9001 1.41636ZM63.6401 0.264541L62.7124 0.134658L62.4351 2.11534L63.3628 2.24522L63.6401 0.264541ZM62.5737 0.125H59.1133V2.125H62.5737V0.125ZM58.1133 1.125V8.79736H60.1133V1.125H58.1133ZM59.1133 9.79736H60.106V7.79736H59.1133V9.79736ZM61.106 8.79736V5.70801H59.106V8.79736H61.106ZM60.106 6.70801H62.5181V4.70801H60.106V6.70801ZM62.1072 6.61969L62.7659 6.91656L63.5877 5.0932L62.929 4.79633L62.1072 6.61969ZM62.2132 6.27253L62.3524 6.7735L64.2794 6.23822L64.1403 5.73724L62.2132 6.27253ZM62.1179 3.02485L62.7766 3.31245L63.5769 1.47954L62.9182 1.19195L62.1179 3.02485ZM62.184 2.51582L62.2489 3.0539L64.2345 2.81426L64.1696 2.27618L62.184 2.51582ZM62.2417 2.93408V3.91748H64.2417V2.93408H62.2417ZM62.2769 3.65436L62.1378 4.16462L64.0673 4.69085L64.2065 4.1806L62.2769 3.65436ZM62.661 3.53048L62.0766 3.81807L62.9596 5.61259L63.544 5.32499L62.661 3.53048ZM62.5181 3.71533H60.106V5.71533H62.5181V3.71533ZM61.106 4.71533V2.1084H59.106V4.71533H61.106ZM60.106 3.1084H62.5181V1.1084H60.106V3.1084ZM76.8145 1.3291L76.1405 2.0679L76.1469 2.07367L76.8145 1.3291ZM77.6401 2.46094L76.7258 2.86587L76.728 2.87075L77.6401 2.46094ZM77.6401 10.8384L78.5523 11.2482L78.5545 11.2433L77.6401 10.8384ZM76.8145 11.9609L76.1469 11.2163L76.1405 11.2222L76.8145 11.9609ZM67.9731 11.9609L67.2992 12.6997L67.3056 12.7055L67.9731 11.9609ZM67.1567 10.8384L66.2424 11.2433L66.2446 11.2482L67.1567 10.8384ZM67.1567 2.46094L68.0689 2.87076L68.0711 2.86586L67.1567 2.46094ZM67.9731 1.3291L67.3056 0.584504L67.2992 0.590336L67.9731 1.3291ZM75.7383 2.62793H76.7383V2.54517L76.7247 2.46353L75.7383 2.62793ZM75.6084 1.84863L76.5948 1.68423L76.5428 1.37241L76.3211 1.14712L75.6084 1.84863ZM75.0239 1.25488L75.7366 0.553366L75.497 0.30999L75.1586 0.263994L75.0239 1.25488ZM74.0684 1.125L74.203 0.134111L74.136 0.125H74.0684V1.125ZM71.582 1.125V0.125H71.5137L71.4461 0.134288L71.582 1.125ZM70.6357 1.25488L70.4998 0.264171L70.1665 0.309913L69.9286 0.547776L70.6357 1.25488ZM70.042 1.84863L69.3349 1.14153L69.0992 1.37723L69.052 1.70721L70.042 1.84863ZM69.9307 2.62793L68.9407 2.48651L68.9307 2.55686V2.62793H69.9307ZM69.9307 7.30371H68.9307V7.37314L68.9403 7.44191L69.9307 7.30371ZM70.042 8.10156L69.0516 8.23976L69.0997 8.58454L69.3515 8.82492L70.042 8.10156ZM70.6543 8.68604L69.9638 9.40939L70.2046 9.63925L70.5352 9.67891L70.6543 8.68604ZM71.582 8.79736L71.4629 9.79024L71.5222 9.79736H71.582V8.79736ZM74.0684 8.79736V9.79736H74.1264L74.1841 9.79064L74.0684 8.79736ZM75.0239 8.68604L75.1396 9.67932L75.4851 9.63907L75.731 9.39314L75.0239 8.68604ZM75.6084 8.10156L76.3155 8.80867L76.5436 8.58059L76.5954 8.26224L75.6084 8.10156ZM75.7383 7.30371L76.7253 7.46439L76.7383 7.38457V7.30371H75.7383ZM74.625 7.72119L74.7748 8.70991L75.4335 8.6101L75.5951 7.96373L74.625 7.72119ZM74.0127 7.81396V8.81396H74.088L74.1625 8.80268L74.0127 7.81396ZM71.6377 7.81396L71.4856 8.80234L71.5612 8.81396H71.6377V7.81396ZM71.0347 7.72119L70.0645 7.96373L70.2257 8.6085L70.8826 8.70956L71.0347 7.72119ZM70.8955 7.16455H69.8955V7.28766L69.9254 7.40709L70.8955 7.16455ZM70.8955 2.7207L69.9116 2.54182L69.8955 2.63053V2.7207H70.8955ZM70.9883 2.21045L70.833 1.22257L70.1315 1.33282L70.0044 2.03156L70.9883 2.21045ZM71.6377 2.1084V1.1084H71.5596L71.4825 1.12052L71.6377 2.1084ZM74.0127 2.1084L74.1679 1.12052L74.0908 1.1084H74.0127V2.1084ZM74.6621 2.21045L75.648 2.04334L75.5279 1.33422L74.8173 1.22257L74.6621 2.21045ZM74.7549 2.75781H75.7549V2.67367L75.7408 2.5907L74.7549 2.75781ZM74.7549 7.20166L75.725 7.4442L75.7549 7.32477V7.20166H74.7549ZM73.8271 1.29004C74.3527 1.29004 74.8 1.36798 75.1813 1.50748L75.8685 -0.370763C75.2355 -0.602354 74.551 -0.709961 73.8271 -0.709961V1.29004ZM75.1813 1.50748C75.5824 1.65421 75.8958 1.84468 76.1405 2.06787L77.4884 0.590336C77.028 0.170297 76.4817 -0.146398 75.8685 -0.370763L75.1813 1.50748ZM76.1469 2.07367C76.4022 2.30251 76.5924 2.56464 76.7258 2.86586L78.5545 2.05601C78.3044 1.49135 77.9442 0.998918 77.482 0.584532L76.1469 2.07367ZM76.728 2.87075C76.86 3.16459 76.9277 3.47904 76.9277 3.82471H78.9277C78.9277 3.20553 78.8038 2.6108 78.5523 2.05112L76.728 2.87075ZM76.9277 3.82471V9.46533H78.9277V3.82471H76.9277ZM76.9277 9.46533C76.9277 9.81099 76.86 10.1305 76.7258 10.4335L78.5545 11.2433C78.8038 10.6804 78.9277 10.0845 78.9277 9.46533H76.9277ZM76.728 10.4286C76.5952 10.724 76.4048 10.9852 76.1469 11.2164L77.482 12.7055C77.9416 12.2935 78.3016 11.8062 78.5523 11.2482L76.728 10.4286ZM76.1405 11.2222C75.8958 11.4454 75.5824 11.6358 75.1813 11.7826L75.8685 13.6608C76.4817 13.4364 77.028 13.1197 77.4884 12.6997L76.1405 11.2222ZM75.1813 11.7826C74.8 11.9221 74.3527 12 73.8271 12V14C74.551 14 75.2355 13.8924 75.8685 13.6608L75.1813 11.7826ZM73.8271 12H70.9697V14H73.8271V12ZM70.9697 12C70.4442 12 69.9969 11.9221 69.6156 11.7826L68.9284 13.6608C69.5614 13.8924 70.2459 14 70.9697 14V12ZM69.6156 11.7826C69.2134 11.6354 68.894 11.4435 68.6407 11.2164L67.3056 12.7055C67.7697 13.1216 68.3162 13.4368 68.9284 13.6608L69.6156 11.7826ZM68.6471 11.2222C68.3936 10.9909 68.2034 10.728 68.0689 10.4286L66.2446 11.2482C66.4935 11.8023 66.8477 12.2878 67.2992 12.6997L68.6471 11.2222ZM68.0711 10.4335C67.9369 10.1305 67.8691 9.81099 67.8691 9.46533H65.8691C65.8691 10.0845 65.9931 10.6804 66.2424 11.2433L68.0711 10.4335ZM67.8691 9.46533V3.82471H65.8691V9.46533H67.8691ZM67.8691 3.82471C67.8691 3.47904 67.9369 3.16459 68.0689 2.87075L66.2446 2.05112C65.9931 2.6108 65.8691 3.20553 65.8691 3.82471H67.8691ZM68.0711 2.86586C68.2062 2.56068 68.3961 2.29682 68.6471 2.06787L67.2992 0.590336C66.8451 1.00461 66.4907 1.49531 66.2424 2.05601L68.0711 2.86586ZM68.6407 2.07367C68.894 1.84657 69.2134 1.65462 69.6156 1.50748L68.9284 -0.370763C68.3162 -0.146807 67.7697 0.168408 67.3056 0.584532L68.6407 2.07367ZM69.6156 1.50748C69.9969 1.36798 70.4442 1.29004 70.9697 1.29004V-0.709961C70.2459 -0.709961 69.5614 -0.602354 68.9284 -0.370763L69.6156 1.50748ZM70.9697 1.29004H73.8271V-0.709961H70.9697V1.29004ZM76.7247 2.46353L76.5948 1.68423L74.622 2.01303L74.7519 2.79233L76.7247 2.46353ZM76.3211 1.14712L75.7366 0.553366L74.3113 1.9564L74.8957 2.55015L76.3211 1.14712ZM75.1586 0.263994L74.203 0.134111L73.9337 2.11589L74.8892 2.24577L75.1586 0.263994ZM74.0684 0.125H71.582V2.125H74.0684V0.125ZM71.4461 0.134288L70.4998 0.264171L70.7717 2.24559L71.718 2.11571L71.4461 0.134288ZM69.9286 0.547776L69.3349 1.14153L70.7491 2.55574L71.3428 1.96199L69.9286 0.547776ZM69.052 1.70721L68.9407 2.48651L70.9206 2.76935L71.0319 1.99005L69.052 1.70721ZM68.9307 2.62793V7.30371H70.9307V2.62793H68.9307ZM68.9403 7.44191L69.0516 8.23976L71.0324 7.96337L70.9211 7.16551L68.9403 7.44191ZM69.3515 8.82492L69.9638 9.40939L71.3448 7.96268L70.7325 7.37821L69.3515 8.82492ZM70.5352 9.67891L71.4629 9.79024L71.7012 7.80449L70.7734 7.69316L70.5352 9.67891ZM71.582 9.79736H74.0684V7.79736H71.582V9.79736ZM74.1841 9.79064L75.1396 9.67932L74.9082 7.69275L73.9526 7.80408L74.1841 9.79064ZM75.731 9.39314L76.3155 8.80867L74.9013 7.39446L74.3168 7.97893L75.731 9.39314ZM76.5954 8.26224L76.7253 7.46439L74.7513 7.14304L74.6214 7.94089L76.5954 8.26224ZM76.7383 7.30371V2.62793H74.7383V7.30371H76.7383ZM74.4752 6.73248L73.8629 6.82525L74.1625 8.80268L74.7748 8.70991L74.4752 6.73248ZM74.0127 6.81396H71.6377V8.81396H74.0127V6.81396ZM71.7898 6.82559L71.1867 6.73282L70.8826 8.70956L71.4856 8.80234L71.7898 6.82559ZM72.0048 7.47866L71.8657 6.92202L69.9254 7.40709L70.0645 7.96373L72.0048 7.47866ZM71.8955 7.16455V2.7207H69.8955V7.16455H71.8955ZM71.8794 2.89959L71.9722 2.38933L70.0044 2.03156L69.9116 2.54182L71.8794 2.89959ZM71.1435 3.19833L71.7929 3.09628L71.4825 1.12052L70.833 1.22257L71.1435 3.19833ZM71.6377 3.1084H74.0127V1.1084H71.6377V3.1084ZM73.8575 3.09628L74.5069 3.19833L74.8173 1.22257L74.1679 1.12052L73.8575 3.09628ZM73.6762 2.37756L73.7689 2.92492L75.7408 2.5907L75.648 2.04334L73.6762 2.37756ZM73.7549 2.75781V7.20166H75.7549V2.75781H73.7549ZM73.7847 6.95912L73.6549 7.47866L75.5951 7.96373L75.725 7.4442L73.7847 6.95912Z" fill="black"/>
</g>
<defs>
<filter id="filter0_d_24_4556" x="0.962891" y="0.290039" width="76.9648" height="13.71" filterUnits="userSpaceOnUse" color-interpolation-filters="sRGB">
<feFlood flood-opacity="0" result="BackgroundImageFix"/>
<feColorMatrix in="SourceAlpha" type="matrix" values="0 0 0 0 0 0 0 0 0 0 0 0 0 0 0 0 0 0 127 0" result="hardAlpha"/>
<feOffset dy="1"/>
<feComposite in2="hardAlpha" operator="out"/>
<feColorMatrix type="matrix" values="0 0 0 0 0.223125 0 0 0 0 0.26398 0 0 0 0 0.283333 0 0 0 1 0"/>
<feBlend mode="normal" in2="BackgroundImageFix" result="effect1_dropShadow_24_4556"/>
<feBlend mode="normal" in="SourceGraphic" in2="effect1_dropShadow_24_4556" result="shape"/>
</filter>
<linearGradient id="paint0_linear_24_4556" x1="42" y1="1.70929e-07" x2="42" y2="14.5" gradientUnits="userSpaceOnUse">
<stop offset="0.239583" stop-color="#D2D2D2"/>
<stop offset="0.520833" stop-color="#FCF8F8"/>
<stop offset="0.791667" stop-color="#D2D2D2"/>
</linearGradient>
</defs>
</svg>
